# xmcd CD database file
#
# Track frame offsets:
#	150
#	11495
#	23762
#	37207
#	52312
#	66092
#	77067
#	90957
#	101175
#	113787
#	124967
#	138767
#
# Disc length: 1999 seconds
#
# Revision: 0
# Processed by: cddbd v1.5.1PL0 Copyright (c) Steve Scherf et al.
# Submitted via: CDex 1.50
#
DISCID=9f07cd0c
DTITLE=Eddie Heywood - Eddie Heywood trio
DYEAR=1955
DGENRE=Jazz
TTITLE0=Hey there
TTITLE1=You never give it a try
TTITLE2=Love me or leave me
TTITLE3=Tenderly
TTITLE4=So little time
TTITLE5=Let's fall in love
TTITLE6=Secret Love
TTITLE7=Old Fashioned Walk
TTITLE8=Soft summer breeze
TTITLE9=Heywood's bounce
TTITLE10=Young at heart
TTITLE11='s wonderful
EXTD=YEAR: 1955
EXTT0=
EXTT1=
EXTT2=
EXTT3=
EXTT4=
EXTT5=
EXTT6=
EXTT7=
EXTT8=
EXTT9=
EXTT10=
EXTT11=
PLAYORDER=
